<?xml version="1.0" standalone="no"?>
<!DOCTYPE svg PUBLIC "-//W3C//DTD SVG 20010904//EN"
 "http://www.w3.org/TR/2001/REC-SVG-20010904/DTD/svg10.dtd">
<svg version="1.0" xmlns="http://www.w3.org/2000/svg"
 width="1254.000000pt" height="1254.000000pt" viewBox="0 0 1254.000000 1254.000000"
 preserveAspectRatio="xMidYMid meet">

<g transform="translate(0.000000,1254.000000) scale(0.100000,-0.100000)"
fill="#000000" stroke="none">
<path d="M0 6270 l0 -6270 6270 0 6270 0 0 6270 0 6270 -6270 0 -6270 0 0
-6270z m6726 5205 c627 -60 1190 -223 1749 -505 405 -205 728 -422 1070 -721
757 -662 1315 -1561 1584 -2550 326 -1203 199 -2498 -358 -3645 -252 -517
-542 -930 -936 -1332 -377 -386 -786 -685 -1275 -932 -995 -502 -2086 -670
-3115 -479 -1286 238 -2448 953 -3223 1984 -389 517 -652 1061 -810 1675 -221
859 -239 1698 -52 2485 343 1445 1238 2641 2521 3370 662 376 1384 599 2134
658 129 11 569 5 711 -8z"/>
<path d="M6583 11423 c9 -2 25 -2 35 0 9 3 1 5 -18 5 -19 0 -27 -2 -17 -5z"/>
<path d="M6738 11413 c12 -2 30 -2 40 0 9 3 -1 5 -23 4 -22 0 -30 -2 -17 -4z"/>
<path d="M6833 11403 c9 -2 23 -2 30 0 6 3 -1 5 -18 5 -16 0 -22 -2 -12 -5z"/>
<path d="M6908 11393 c7 -3 16 -2 19 1 4 3 -2 6 -13 5 -11 0 -14 -3 -6 -6z"/>
<path d="M6845 11310 c-7 -11 -8 -11 23 -14 25 -3 30 9 6 18 -21 8 -22 8 -29
-4z"/>
<path d="M6286 11284 c-5 -14 -4 -15 9 -4 17 14 19 20 6 20 -5 0 -12 -7 -15
-16z"/>
<path d="M6258 11250 c-3 -11 -27 -16 -94 -21 l-89 -6 118 -1 c72 -1 117 2
117 8 0 6 -9 10 -19 10 -11 0 -21 6 -23 13 -3 8 -6 8 -10 -3z"/>
<path d="M6328 11233 c7 -3 16 -2 19 1 4 3 -2 6 -13 5 -11 0 -14 -3 -6 -6z"/>
<path d="M6440 11232 c0 -5 57 -12 128 -15 70 -4 159 -9 197 -12 54 -3 61 -3
30 4 -22 5 -83 12 -135 15 -52 4 -123 9 -157 11 -35 3 -63 1 -63 -3z"/>
<path d="M5973 11213 c15 -2 39 -2 55 0 15 2 2 4 -28 4 -30 0 -43 -2 -27 -4z"/>
<path d="M5873 11203 c9 -2 25 -2 35 0 9 3 1 5 -18 5 -19 0 -27 -2 -17 -5z"/>
<path d="M6840 11198 c0 -4 16 -8 35 -8 19 0 35 2 35 4 0 2 -16 6 -35 8 -19 2
-35 0 -35 -4z"/>
<path d="M5778 11193 c12 -2 30 -2 40 0 9 3 -1 5 -23 4 -22 0 -30 -2 -17 -4z"/>
<path d="M5990 11189 c-819 -71 -1599 -346 -2287 -807 -249 -167 -473 -350
-696 -571 -694 -682 -1138 -1479 -1352 -2422 -61 -268 -115 -669 -115 -852 0
-54 -2 -58 -20 -52 -16 5 -19 3 -13 -11 5 -12 3 -15 -6 -9 -10 6 -11 3 -2 -13
7 -14 8 -23 1 -27 -6 -4 -7 -13 -1 -23 4 -9 6 -26 4 -37 -2 -11 -4 -28 -4 -37
0 -9 -6 -19 -13 -21 -12 -5 -14 -112 -2 -124 3 -3 1 -12 -5 -20 -6 -7 -8 -13
-5 -13 4 0 2 -8 -3 -18 -5 -10 -11 -44 -13 -75 -1 -31 -6 -57 -10 -57 -4 0 -4
-12 -1 -27 3 -16 7 -131 9 -258 4 -222 7 -300 19 -395 3 -25 7 -72 9 -105 2
-33 11 -85 19 -115 9 -30 18 -76 22 -102 3 -26 8 -53 10 -60 5 -15 12 -49 30
-138 7 -36 19 -89 28 -117 9 -29 14 -53 11 -53 -2 0 4 -17 15 -37 10 -21 24
-64 30 -95 7 -32 25 -83 41 -115 15 -32 31 -69 35 -83 4 -14 25 -63 47 -109
21 -46 37 -90 34 -98 -3 -8 -2 -12 3 -9 5 3 12 -1 15 -10 3 -8 2 -12 -4 -9 -6
3 -7 -1 -4 -9 3 -9 10 -13 15 -11 4 3 20 -17 34 -46 15 -28 21 -48 15 -44 -6
4 -4 -7 4 -24 9 -17 19 -31 22 -31 3 0 2 6 -1 12 -4 7 1 4 9 -7 9 -11 14 -25
11 -33 -2 -7 -1 -11 4 -8 5 3 12 -1 15 -10 4 -10 2 -13 -6 -8 -12 8 27 -63 45
-81 7 -7 7 -5 2 4 -6 10 -4 12 4 7 7 -5 10 -15 7 -23 -3 -8 -2 -12 3 -9 4 3
18 -13 30 -34 12 -22 20 -40 16 -40 -3 0 -1 -9 5 -20 6 -11 16 -19 23 -17 7 1
11 -6 11 -16 -1 -10 1 -16 4 -13 8 8 53 -61 50 -76 -2 -7 3 -12 10 -10 6 1 11
-1 11 -5 -3 -17 2 -29 22 -53 11 -14 18 -18 14 -10 -7 15 5 2 75 -80 21 -25
48 -56 60 -70 12 -14 33 -42 46 -62 27 -43 93 -117 175 -198 31 -30 80 -84
110 -120 67 -81 317 -329 384 -381 111 -87 160 -130 157 -140 -1 -6 2 -8 7 -5
11 7 97 -63 93 -76 -1 -5 2 -7 7 -4 5 3 20 -3 32 -15 13 -11 18 -18 12 -14 -7
3 -13 4 -13 1 0 -2 80 -58 178 -123 891 -596 1887 -895 2892 -870 727 18 1429
196 2102 533 295 147 632 363 863 553 639 524 1105 1137 1439 1895 32 71 55
135 52 143 -3 8 -2 12 3 8 5 -3 19 20 30 50 25 66 26 75 6 49 -13 -18 -14 -17
-6 12 9 34 29 74 36 74 2 0 2 -8 -1 -17 -5 -15 -4 -15 4 -3 5 8 13 26 16 40 6
19 5 21 -3 10 -14 -19 -14 -9 0 27 20 51 48 175 43 188 -3 7 -1 16 5 20 6 3
11 16 11 28 0 12 7 41 15 65 9 24 18 60 21 80 3 20 14 74 25 120 11 46 22 95
24 110 2 15 10 61 19 102 14 73 28 195 26 235 -1 11 -1 25 0 30 0 6 2 70 4
142 1 73 4 135 7 137 7 8 -6 753 -15 836 -9 86 -19 215 -21 275 -1 33 -8 71
-15 85 -7 14 -13 26 -12 28 1 1 2 3 1 5 -1 1 -3 20 -4 42 -12 135 -17 171 -26
182 -6 6 -12 28 -15 49 -2 20 -7 41 -10 45 -3 5 -7 25 -10 45 -2 20 -13 56
-23 80 -11 23 -17 45 -13 48 7 8 -19 56 -28 51 -4 -2 -7 6 -7 18 1 27 -18 68
-55 124 -15 23 -28 48 -28 56 0 8 -7 20 -15 27 -19 16 -10 31 13 23 16 -6 16
-5 0 14 -20 22 -24 38 -6 27 7 -5 8 -3 4 5 -5 7 -14 10 -21 7 -8 -3 -19 3 -27
12 -8 10 -9 13 -1 9 8 -5 11 -1 10 12 0 11 -5 17 -10 14 -4 -3 -8 1 -6 8 4 33
-1 40 -23 34 -17 -5 -19 -4 -9 4 23 15 -4 41 -40 37 -21 -2 -27 0 -20 8 6 7 4
16 -4 23 -11 10 -15 10 -18 0 -5 -11 -11 16 -8 38 0 6 -8 16 -18 22 -17 11
-16 4 9 -58 45 -109 136 -394 174 -546 45 -178 98 -440 94 -461 -2 -10 -14 37
-26 103 -190 1005 -690 1931 -1429 2645 -769 744 -1751 1194 -2813 1290 -132
11 -550 11 -690 -1z m740 -1095 c447 -51 818 -159 1225 -354 261 -125 629
-377 848 -579 l59 -55 -48 -18 c-43 -16 -22 -17 29 -2 15 5 17 -2 17 -51 0
-67 12 -75 75 -51 l44 17 64 -68 c89 -93 208 -234 271 -318 44 -58 176 -251
199 -292 5 -7 -11 -15 -46 -23 -28 -7 -61 -20 -72 -30 -21 -19 -193 -122 -435
-260 -80 -46 -152 -89 -160 -96 -9 -7 -31 -57 -50 -110 -44 -121 -51 -108 -10
19 l31 96 -42 68 c-115 189 -246 363 -381 508 l-75 80 -16 -30 -16 -30 -1 38
c0 31 -8 47 -47 89 -126 134 -371 302 -628 428 -479 236 -984 328 -1507 274
-1061 -108 -1992 -795 -2450 -1807 -108 -239 -195 -522 -234 -762 -12 -71 -26
-123 -40 -146 -19 -31 -24 -57 -30 -170 l-7 -134 29 25 c16 13 61 55 99 92
l70 68 -3 -203 c-6 -374 52 -709 183 -1043 51 -132 163 -356 231 -464 154
-243 403 -526 619 -703 411 -336 925 -569 1420 -642 60 -9 111 -17 113 -19 1
-2 -10 -23 -26 -47 -46 -69 -133 -223 -201 -357 -35 -68 -65 -122 -67 -120 -2
2 35 79 82 171 47 92 83 171 80 176 -3 5 -31 12 -63 16 -82 10 -320 70 -448
112 -303 100 -657 287 -909 481 -33 25 -56 40 -52 33 7 -10 4 -11 -12 -2 -12
6 -24 16 -28 23 -5 7 -3 8 7 3 12 -8 12 -6 0 8 -7 9 -17 14 -22 11 -5 -3 -8 0
-7 8 2 7 -6 13 -17 13 -11 0 -20 5 -20 11 0 14 -203 208 -220 210 -21 3 -58
41 -51 52 3 5 -1 15 -9 22 -8 7 -15 9 -15 5 0 -5 -9 0 -20 10 -22 20 -27 40
-7 29 6 -4 -1 7 -17 24 -17 18 -32 32 -35 32 -2 0 6 -11 19 -25 13 -14 20 -25
16 -25 -9 0 -55 52 -56 63 0 5 6 5 13 1 6 -4 9 -4 5 0 -3 4 -9 7 -13 6 -10 -3
-65 52 -65 63 0 6 10 2 23 -9 l22 -19 -19 23 c-11 12 -21 20 -24 17 -7 -6 -32
15 -32 27 0 5 6 6 12 2 7 -5 -8 21 -33 56 -221 311 -377 646 -469 1010 -50
199 -74 370 -85 610 -7 137 -15 187 -15 90 0 -29 -2 -51 -5 -48 -8 8 -6 118 3
263 9 133 8 159 -4 109 -8 -32 -34 -73 -47 -74 -5 0 1 12 12 26 18 23 19 54 1
54 -4 0 -20 -10 -36 -21 -21 -16 -19 -12 9 15 37 38 53 63 19 33 -25 -23 -33
-21 -28 6 2 14 9 21 20 19 21 -4 10 25 -15 39 -23 12 -26 34 -3 25 9 -3 12 -2
9 5 -4 5 -15 7 -25 4 -15 -5 -17 -2 -13 17 4 18 3 20 -6 8 -12 -17 -15 -1 -5
25 5 13 8 14 15 3 6 -9 9 -9 9 -1 0 19 -29 43 -45 36 -9 -3 -21 0 -29 6 -10 9
-15 3 -25 -29 -11 -36 -35 -68 -29 -38 2 7 -3 12 -9 11 -7 -2 -13 2 -13 8 0 6
8 8 18 5 13 -4 17 0 18 20 2 24 1 24 -22 9 -35 -23 -40 -18 -13 12 18 20 20
25 7 20 -22 -8 -23 6 -2 27 17 17 14 19 -10 10 -9 -3 -16 -12 -16 -19 0 -7 -6
-18 -13 -24 -12 -9 -13 0 -11 49 2 33 -1 58 -5 55 -14 -8 -19 -53 -8 -64 8 -8
7 -11 -1 -11 -7 0 -12 -6 -12 -13 0 -7 -7 -22 -16 -33 -15 -19 -15 -19 -6 1 5
11 7 26 5 33 -3 6 0 12 6 12 6 0 11 4 11 10 0 5 -7 7 -15 4 -8 -4 -15 -1 -15
5 0 6 4 11 9 11 5 0 12 7 15 16 5 14 4 15 -9 4 -18 -15 -20 0 -2 20 10 12 9
12 -4 2 -9 -7 -19 -26 -23 -42 -5 -27 -8 -29 -30 -20 -18 6 -28 5 -37 -6 -9
-11 -15 -12 -25 -3 -11 9 -14 6 -14 -15 0 -14 -9 -35 -21 -47 -14 -14 -19 -28
-15 -45 4 -13 3 -24 -2 -24 -5 0 -8 -10 -7 -22 1 -13 -4 -34 -11 -48 -8 -17
-9 -31 -3 -42 7 -13 5 -22 -9 -36 -10 -10 -17 -25 -15 -33 2 -8 -3 -1 -10 15
-13 27 -14 24 -20 -55 -47 -602 126 -1342 444 -1906 517 -915 1364 -1567 2379
-1833 63 -16 118 -30 122 -30 4 0 19 23 33 50 14 28 28 50 30 50 3 0 -6 -22
-20 -50 -14 -27 -25 -52 -25 -55 1 -12 -62 -127 -66 -122 -3 3 6 27 20 54 l24
49 -136 33 c-442 108 -902 322 -1287 600 -241 175 -533 447 -714 666 -168 204
-345 469 -447 671 -21 40 -40 72 -42 70 -2 -2 4 -18 12 -35 18 -34 22 -66 6
-41 -5 8 -10 11 -10 6 0 -5 -8 -2 -17 5 -19 16 121 -260 166 -324 15 -23 33
-53 40 -67 12 -24 11 -24 -4 -5 -65 80 -227 378 -305 559 -269 629 -364 1235
-294 1876 80 748 390 1464 897 2074 390 468 906 842 1472 1066 392 155 751
233 1215 264 98 7 401 -5 530 -20z m-4756 -1901 c-170 -398 -278 -809 -346
-1312 -20 -146 -23 -210 -23 -541 0 -307 3 -399 18 -510 154 -1143 562 -2007
1312 -2779 270 -278 529 -490 841 -689 874 -558 1862 -824 2829 -762 159 11
447 48 578 76 71 15 93 17 86 9 -3 -2 -52 -14 -109 -26 -57 -13 -99 -24 -93
-26 15 -5 286 52 439 92 126 33 361 110 473 154 29 12 55 20 58 18 7 -8 -262
-105 -418 -152 -282 -84 -483 -128 -754 -164 -666 -89 -1342 -18 -2011 210
-928 316 -1683 846 -2292 1607 -351 440 -640 992 -797 1527 -210 712 -265
1437 -159 2103 45 284 132 637 175 710 10 18 19 42 19 52 0 24 55 172 74 202
8 13 26 52 40 88 29 76 104 240 110 240 2 0 -20 -57 -50 -127z m4533 102 c450
-59 865 -286 1150 -628 91 -109 110 -139 157 -247 20 -47 44 -97 52 -113 22
-39 61 -159 84 -254 50 -204 73 -522 62 -841 l-7 -197 -7 335 c-4 184 -11 351
-16 370 -6 19 -10 29 -11 21 -1 -8 -7 -11 -17 -7 -9 4 -23 1 -32 -6 -12 -11
-16 -10 -20 1 -10 31 -20 -14 -14 -72 4 -51 3 -59 -10 -55 -8 4 -20 -3 -27
-15 -13 -19 -14 -20 -26 -4 -11 15 -13 16 -18 2 -4 -8 -1 -14 5 -12 25 5 30
-139 5 -155 -8 -5 -8 -8 -1 -8 11 0 12 -1 20 -74 5 -38 3 -47 -7 -41 -9 6 -10
3 -5 -11 15 -37 19 -234 7 -327 -16 -122 -47 -253 -83 -357 -181 -517 -657
-915 -1213 -1017 -112 -20 -356 -22 -480 -4 -240 35 -457 115 -650 239 -353
226 -595 562 -681 942 -22 97 -47 347 -38 389 9 50 12 134 4 121 -8 -12 -10
-10 -11 10 0 14 -2 39 -5 55 -4 29 -15 284 -14 334 0 14 -3 21 -7 17 -4 -3
-12 4 -19 16 -9 17 -21 23 -52 23 l-40 0 -7 -95 c-4 -52 -11 -192 -15 -310 -7
-201 -8 -195 -5 95 5 484 46 692 200 1020 93 199 329 443 577 597 225 140 526
243 788 271 93 10 321 5 427 -8z m4353 -396 c0 -14 -17 -10 -23 5 -4 10 -1 13
9 9 7 -3 14 -9 14 -14z m-7246 -753 c-10 -31 -19 -54 -22 -52 -2 2 4 29 14 60
10 31 19 54 22 52 2 -2 -4 -29 -14 -60z m806 -92 c-48 -138 -75 -509 -68 -929
5 -290 6 -290 -29 0 -4 33 -8 50 -11 38 -2 -13 -8 -23 -13 -23 -5 0 -9 -7 -9
-15 0 -18 -12 -19 -28 -3 -9 9 -12 8 -12 -6 0 -16 -1 -16 -16 -1 -11 11 -20
13 -28 5 -7 -5 -16 -7 -19 -4 -8 8 -37 -21 -37 -36 0 -6 -4 -8 -10 -5 -5 3
-10 0 -10 -7 0 -9 -3 -9 -10 2 -25 39 -4 -295 25 -396 18 -61 76 -131 168
-200 34 -26 61 -51 59 -57 -2 -5 4 -7 13 -3 9 3 14 2 11 -3 -3 -5 8 -14 24
-21 36 -15 52 -34 17 -21 -42 16 -152 87 -152 99 0 5 -4 14 -9 19 -5 5 -6 3
-2 -4 11 -20 -9 -15 -27 5 -10 10 -14 22 -10 27 5 4 3 5 -4 2 -37 -22 -122
114 -147 233 -46 228 -49 784 -5 1012 17 88 59 150 149 221 75 60 200 140 207
133 2 -1 -6 -29 -17 -62z m3858 -51 c40 -31 88 -74 108 -96 78 -92 99 -250 91
-688 -9 -521 -41 -625 -232 -758 -11 -8 0 4 25 27 25 23 41 41 37 42 -5 0 9
21 32 46 49 56 67 125 81 321 10 141 13 438 3 416 -3 -8 -14 -11 -29 -7 -17 4
-24 2 -24 -8 0 -8 -10 -23 -22 -35 -38 -33 -83 -96 -80 -110 3 -13 -9 -17 -35
-14 -7 1 -13 -4 -14 -11 -1 -7 -4 -2 -8 12 -6 18 -10 -2 -15 -65 -3 -49 -11
-128 -16 -175 -9 -84 -9 -84 -5 33 2 64 0 288 -5 496 -10 390 -27 556 -65 647
-8 20 -15 39 -15 41 0 10 119 -62 188 -114z m2695 -12 c4 -49 4 -56 -2 -26
-12 59 -22 169 -12 126 5 -18 11 -63 14 -100z m-7389 55 c-3 -15 -8 -25 -11
-23 -2 3 -1 17 3 31 3 15 8 25 11 23 2 -3 1 -17 -3 -31z m-33 -130 c-10 -48
-21 -88 -23 -90 -1 -1 -39 -35 -83 -76 l-80 -74 78 80 c77 79 78 81 98 168 12
48 23 85 25 83 3 -2 -4 -44 -15 -91z m7436 -58 c-3 -7 -5 -2 -5 12 0 14 2 19
5 13 2 -7 2 -19 0 -25z m-8089 -51 c-15 -12 -39 -38 -53 -57 -14 -18 -25 -28
-25 -22 0 16 79 102 94 102 6 -1 -1 -11 -16 -23z m243 -27 c24 13 25 -1 2 -36
-18 -29 -33 -17 -32 26 0 14 3 19 6 13 3 -9 10 -10 24 -3z m-186 -40 c3 -6 -1
-7 -9 -4 -18 7 -21 14 -7 14 6 0 13 -4 16 -10z m50 0 c-3 -5 -11 -10 -16 -10
-6 0 -7 5 -4 10 3 6 11 10 16 10 6 0 7 -4 4 -10z m7955 -95 l3 -50 6 45 c11
79 24 -132 22 -368 -5 -720 -184 -1453 -517 -2122 -382 -765 -908 -1366 -1589
-1815 -129 -85 -199 -127 -184 -111 3 3 59 40 124 82 406 259 781 600 1104
1004 132 165 311 434 297 447 -2 3 -39 -45 -81 -106 -42 -61 -79 -111 -81
-111 -2 0 23 41 56 90 355 528 606 1129 730 1750 78 393 104 686 98 1090 -3
157 -1 272 2 255 4 -16 9 -52 10 -80z m-8136 50 c-4 -8 -10 -15 -15 -15 -4 0
-6 7 -3 15 4 8 10 15 15 15 4 0 6 -7 3 -15z m232 -11 c-4 -9 -9 -15 -11 -12
-3 3 -3 13 1 22 4 9 9 15 11 12 3 -3 3 -13 -1 -22z m-206 1 c-7 -9 -15 -13
-19 -10 -3 3 1 10 9 15 21 14 24 12 10 -5z m300 -7 c0 -6 -6 -5 -15 2 -8 7
-15 14 -15 16 0 2 7 1 15 -2 8 -4 15 -11 15 -16z m-350 -38 c-12 -16 -26 -30
-31 -30 -12 0 32 59 44 59 5 1 -1 -12 -13 -29z m323 5 c-3 -8 -10 -15 -15 -15
-7 0 -6 5 1 13 6 8 7 18 3 22 -4 5 -2 5 5 1 7 -4 10 -13 6 -21z m77 5 c0 -5
-5 -10 -11 -10 -5 0 -7 5 -4 10 3 6 8 10 11 10 2 0 4 -4 4 -10z m-190 -24 c0
-3 -4 -8 -10 -11 -5 -3 -10 -1 -10 4 0 6 5 11 10 11 6 0 10 -2 10 -4z m-270
-146 c0 -5 -4 -10 -10 -10 -5 0 -10 5 -10 10 0 6 5 10 10 10 6 0 10 -4 10 -10z
m517 -67 c5 -15 -21 -23 -38 -12 -11 7 -10 9 4 9 11 0 15 5 11 11 -4 7 -1 10
6 7 8 -2 15 -9 17 -15z m3 -44 c0 -11 -4 -17 -10 -14 -5 3 -10 13 -10 21 0 8
5 14 10 14 6 0 10 -9 10 -21z m-1733 -36 c-3 -10 -5 -4 -5 12 0 17 2 24 5 18
2 -7 2 -21 0 -30z m3136 -961 c40 -103 201 -329 350 -494 344 -378 843 -628
1253 -628 138 0 358 44 381 77 9 11 26 17 50 16 25 -1 32 2 22 8 -10 7 -6 8
12 4 19 -5 65 14 190 77 90 46 193 104 229 129 82 58 95 66 86 51 -19 -31 41
12 150 107 22 20 9 6 -30 -31 -161 -153 -475 -341 -680 -407 -162 -52 -238
-64 -406 -64 -236 -1 -413 44 -652 163 -330 165 -668 467 -852 762 -41 67
-136 265 -136 285 0 15 18 -14 33 -55z m3107 -202 c-6 -11 -13 -20 -16 -20 -2
0 0 9 6 20 6 11 13 20 16 20 2 0 0 -9 -6 -20z m1340 -357 c471 -298 480 -304
480 -313 0 -4 -26 -13 -58 -19 -58 -11 -58 -12 -97 -79 -106 -183 -297 -445
-426 -585 l-54 -59 -90 60 c-301 198 -497 317 -512 310 -5 -1 -33 -30 -65 -63
l-56 -60 131 -86 c73 -48 204 -134 292 -192 88 -58 178 -122 200 -142 44 -40
42 -41 -28 -5 l-47 24 -58 -57 c-54 -54 -82 -73 -66 -44 4 7 3 9 -2 4 -5 -5
-9 -14 -9 -20 0 -32 -488 -367 -534 -367 -11 0 -24 -7 -29 -16 -5 -8 -16 -16
-24 -18 -9 -1 -23 -8 -32 -15 -9 -7 -16 -10 -16 -5 0 5 -4 3 -8 -4 -5 -7 -18
-14 -29 -17 -12 -2 -41 -15 -65 -29 -49 -30 -57 -33 -158 -74 -41 -16 -109
-43 -150 -60 -178 -73 -403 -137 -635 -182 -250 -48 -316 -53 -698 -56 l-368
-3 -36 -45 c-20 -25 -38 -46 -40 -46 -5 0 33 66 52 90 6 8 33 58 60 110 26 52
52 100 57 107 5 7 6 18 2 24 -5 8 -3 9 6 4 9 -5 10 -2 5 14 -4 14 -1 23 9 27
9 3 13 10 10 15 -3 5 0 9 6 9 6 0 8 5 5 10 -3 6 -1 10 5 10 6 0 8 5 5 10 -3 6
-1 10 5 10 6 0 8 5 5 10 -3 6 -1 10 5 10 6 0 8 5 5 10 -3 6 -1 10 6 10 7 0 10
3 7 6 -3 3 10 35 30 72 19 37 42 85 51 107 9 22 40 79 70 128 l54 87 82 0
c255 0 585 67 863 176 656 257 1155 702 1504 1342 22 41 45 72 51 69 7 -2 154
-94 327 -204z m-1490 144 c0 -2 -10 -12 -22 -23 l-23 -19 19 23 c18 21 26 27
26 19z m-50 -60 c0 -2 -19 -21 -42 -42 l-43 -40 40 43 c36 39 45 47 45 39z
m-893 -303 c-3 -3 -12 -4 -19 -1 -8 3 -5 6 6 6 11 1 17 -2 13 -5z m4176 -209
c-3 -9 -8 -14 -10 -11 -3 3 -2 9 2 15 9 16 15 13 8 -4z m-7553 -225 c12 -16
19 -30 16 -30 -2 0 -14 14 -26 30 -12 17 -19 30 -16 30 2 0 14 -13 26 -30z
m121 -167 c13 -16 12 -17 -3 -4 -17 13 -22 21 -14 21 2 0 10 -8 17 -17z m30
-40 c13 -16 12 -17 -3 -4 -17 13 -22 21 -14 21 2 0 10 -8 17 -17z m6609 -427
c0 -2 -8 -10 -17 -17 -16 -13 -17 -12 -4 4 13 16 21 21 21 13z m-1375 -1315
c-14 -13 -132 -76 -122 -66 7 9 118 74 127 75 2 0 0 -4 -5 -9z m-175 -96 c0
-3 -27 -18 -60 -35 -33 -17 -60 -28 -60 -25 0 2 26 18 58 34 64 34 62 33 62
26z m-160 -85 c-19 -11 -39 -19 -45 -19 -5 0 6 8 25 19 19 11 40 19 45 19 6 0
-6 -8 -25 -19z m-120 -55 c-14 -8 -29 -14 -35 -14 -5 0 1 6 15 14 14 8 30 14
35 14 6 0 -1 -6 -15 -14z m-80 -35 c-8 -5 -19 -10 -25 -10 -5 0 -3 5 5 10 8 5
20 10 25 10 6 0 3 -5 -5 -10z m-70 -30 c-8 -5 -19 -10 -25 -10 -5 0 -3 5 5 10
8 5 20 10 25 10 6 0 3 -5 -5 -10z"/>
<path d="M8589 8978 c-265 -159 -429 -261 -429 -269 0 -8 104 -99 113 -99 3 0
133 77 287 170 154 94 285 170 290 170 14 0 12 18 -2 27 -7 4 -31 28 -54 54
l-41 45 -164 -98z"/>
<path d="M2970 6939 c0 -5 5 -7 10 -4 6 3 10 8 10 11 0 2 -4 4 -10 4 -5 0 -10
-5 -10 -11z"/>
<path d="M3020 6940 c0 -5 5 -10 10 -10 6 0 10 5 10 10 0 6 -4 10 -10 10 -5 0
-10 -4 -10 -10z"/>
<path d="M3020 6885 c0 -8 4 -15 10 -15 5 0 7 7 4 15 -4 8 -8 15 -10 15 -2 0
-4 -7 -4 -15z"/>
<path d="M2824 6869 c-8 -13 24 -18 35 -6 7 9 5 13 -10 13 -11 0 -22 -3 -25
-7z"/>
<path d="M3200 6739 c0 -5 5 -7 10 -4 6 3 10 8 10 11 0 2 -4 4 -10 4 -5 0 -10
-5 -10 -11z"/>
<path d="M3431 6406 c-21 -21 -30 -39 -26 -47 6 -8 4 -10 -5 -4 -8 5 -21 -3
-36 -21 -20 -25 -23 -40 -24 -117 0 -82 25 -359 35 -382 2 -5 2 33 0 85 -3 52
-2 89 1 82 8 -17 24 -5 24 18 0 10 4 21 9 24 5 3 8 -8 7 -24 -1 -17 2 -30 7
-30 4 0 5 -4 2 -10 -3 -5 -2 -10 3 -10 14 0 20 22 12 45 -4 11 -4 30 1 42 4
12 4 23 -1 25 -11 3 -2 48 10 48 3 0 8 -26 9 -57 1 -32 6 -74 11 -93 5 -23 6
-2 3 60 -4 63 -10 99 -19 106 -8 6 -14 20 -13 30 0 18 1 18 9 -1 6 -13 8 9 8
65 -1 70 -2 77 -8 40 l-7 -45 -1 48 c-1 29 -8 55 -18 64 -14 14 -13 18 7 39
12 13 25 22 28 19 4 -2 8 5 8 16 1 10 1 19 -1 19 -1 0 -17 -15 -35 -34z m-64
-373 c-3 -10 -5 -4 -5 12 0 17 2 24 5 18 2 -7 2 -21 0 -30z"/>
<path d="M3403 5945 c-7 -8 -13 -20 -13 -27 1 -8 5 -7 14 5 9 11 20 15 32 10
18 -6 18 -6 2 10 -20 20 -20 20 -35 2z"/>
<path d="M3382 5795 c0 -16 2 -22 5 -12 2 9 2 23 0 30 -3 6 -5 -1 -5 -18z"/>
<path d="M1573 6125 c0 -22 2 -30 4 -17 2 12 2 30 0 40 -3 9 -5 -1 -4 -23z"/>
<path d="M1581 6019 c0 -35 4 -86 9 -114 5 -33 6 -12 3 60 -6 121 -13 155 -12
54z"/>
<path d="M1602 5810 c0 -19 2 -27 5 -17 2 9 2 25 0 35 -3 9 -5 1 -5 -18z"/>
<path d="M6321 7556 c75 -12 147 -35 111 -36 -9 0 -10 -5 -2 -19 5 -11 10 -29
10 -41 0 -15 5 -20 14 -17 8 3 16 1 18 -4 2 -7 12 -7 30 0 22 8 29 6 45 -11
10 -12 12 -18 4 -13 -9 5 -12 4 -7 -3 3 -6 -5 -23 -18 -39 l-24 -28 -24 20
-23 19 22 -24 23 -24 51 49 50 50 -46 42 c-60 55 -139 84 -240 89 l-80 3 86
-13z"/>
<path d="M6195 7425 l-30 -14 30 7 c17 4 63 7 103 7 40 0 64 3 55 7 -31 12
-127 8 -158 -7z"/>
<path d="M7771 7128 c-12 -294 -25 -483 -37 -560 -9 -56 10 -46 39 20 29 65
52 197 72 421 22 239 21 276 -16 346 -17 33 -34 63 -38 68 -4 4 -13 -129 -20
-295z"/>
<path d="M4726 7395 c-4 -15 -20 -55 -36 -89 l-30 -63 10 -154 c17 -248 46
-423 82 -502 17 -37 33 -65 35 -63 2 2 -3 78 -11 167 -8 90 -20 290 -26 444
-6 153 -12 281 -14 283 -2 1 -7 -9 -10 -23z"/>
<path d="M6381 7416 c10 -9 69 -36 69 -32 0 6 -55 36 -66 36 -4 0 -5 -2 -3 -4z"/>
<path d="M6061 7335 c-36 -37 -76 -75 -88 -87 -12 -11 -19 -27 -16 -35 3 -8 0
-18 -7 -23 -8 -5 -1 -9 19 -12 29 -4 32 -2 42 36 15 59 53 120 96 155 21 17
33 31 28 31 -5 0 -38 -29 -74 -65z"/>
<path d="M5922 7108 c18 -114 25 -144 41 -173 9 -16 19 -37 22 -45 4 -8 27
-31 53 -50 75 -57 129 -110 112 -111 -43 -2 64 -28 120 -28 115 -2 217 34 298
105 l44 37 -53 53 -52 53 -36 -31 c-122 -107 -313 -93 -406 29 -37 49 -65 125
-65 180 0 32 -1 33 -43 33 l-44 0 9 -52z"/>
<path d="M7862 6910 c0 -19 2 -27 5 -17 2 9 2 25 0 35 -3 9 -5 1 -5 -18z"/>
<path d="M4661 6884 c0 -11 3 -14 6 -6 3 7 2 16 -1 19 -3 4 -6 -2 -5 -13z"/>
<path d="M4671 6784 c0 -11 3 -14 6 -6 3 7 2 16 -1 19 -3 4 -6 -2 -5 -13z"/>
<path d="M7841 6764 c0 -11 3 -14 6 -6 3 7 2 16 -1 19 -3 4 -6 -2 -5 -13z"/>
<path d="M4682 6720 c0 -19 2 -27 5 -17 2 9 2 25 0 35 -3 9 -5 1 -5 -18z"/>
<path d="M5010 6529 c-77 -13 -172 -62 -215 -111 -56 -66 -78 -135 -83 -263
-2 -73 -1 -107 6 -100 6 6 12 19 14 30 3 11 8 -11 11 -50 16 -164 29 -245 53
-334 145 -538 622 -952 1219 -1056 134 -24 375 -24 510 0 217 37 459 139 639
269 344 248 555 606 610 1036 8 63 14 88 15 63 2 -66 19 -51 27 24 10 96 -1
209 -26 277 -110 290 -529 300 -1066 24 -245 -125 -298 -142 -454 -142 -158
-1 -205 13 -460 140 -213 106 -355 157 -517 184 -122 21 -193 23 -283 9z m377
-625 c13 -3 20 -10 17 -15 -3 -5 3 -6 12 -2 12 4 15 3 10 -5 -5 -8 -1 -10 10
-5 11 4 22 -1 30 -12 8 -10 14 -16 14 -12 0 25 191 -114 204 -148 3 -10 2 -13
-5 -9 -6 3 6 -15 26 -42 41 -53 105 -175 105 -199 0 -31 -317 -13 -360 20 -8
6 -34 17 -57 24 -28 8 -60 29 -94 64 -65 66 -132 153 -134 175 -1 9 -9 40 -17
67 -9 28 -20 65 -23 83 l-7 34 123 -6 c68 -3 134 -8 146 -12z m2007 -11 c-54
-229 -219 -391 -446 -437 -84 -17 -205 -21 -227 -7 -11 7 -8 20 16 72 109 232
357 395 601 398 l62 1 -6 -27z"/>
<path d="M7780 6386 c0 -1 8 -19 18 -40 l19 -38 -1 38 c-1 27 -6 38 -19 40 -9
1 -17 1 -17 0z"/>
<path d="M4325 5446 c17 -14 34 -26 39 -26 11 0 11 0 -34 29 l-35 23 30 -26z"/>
<path d="M8240 6149 c0 -5 5 -7 10 -4 6 3 10 8 10 11 0 2 -4 4 -10 4 -5 0 -10
-5 -10 -11z"/>
<path d="M8346 5572 c-36 -42 -36 -44 -7 -17 28 25 58 66 49 65 -2 -1 -21 -22
-42 -48z"/>
<path d="M7160 4557 c-31 -23 -67 -50 -80 -60 -45 -32 4 -4 78 45 39 27 72 51
72 53 0 11 -18 1 -70 -38z"/>
<path d="M8725 4908 c-67 -117 -215 -336 -304 -448 -74 -94 -264 -291 -391
-406 -36 -32 -58 -53 -48 -45 10 8 21 11 24 8 4 -3 16 -1 28 5 11 7 24 12 28
13 3 0 9 3 12 6 4 4 20 5 37 3 24 -3 30 -1 25 11 -6 18 -1 19 25 5 14 -8 19
-7 19 3 0 26 45 58 78 55 41 -3 88 37 68 58 -16 15 -9 64 9 64 6 0 20 9 30 20
10 11 21 18 24 15 4 -2 11 -1 17 3 16 11 54 69 54 82 0 15 25 40 40 40 6 0 8
4 5 10 -3 5 0 7 8 4 10 -3 25 11 43 41 16 26 50 74 75 109 56 75 81 121 71
131 -4 5 -1 5 6 1 13 -8 51 63 52 97 0 11 9 30 20 44 16 20 17 29 8 46 -6 12
-12 37 -14 55 -2 31 -1 32 12 15 14 -16 14 -16 3 7 -6 14 -13 26 -14 28 -1 2
-24 -34 -50 -80z"/>
<path d="M8760 4730 c-6 -11 -8 -20 -6 -20 3 0 10 9 16 20 6 11 8 20 6 20 -3
0 -10 -9 -16 -20z"/>
<path d="M8676 4600 c-25 -38 -44 -70 -41 -70 2 0 22 26 43 58 47 70 54 82 49
82 -2 0 -25 -31 -51 -70z"/>
<path d="M9330 4536 c0 -3 9 -10 20 -16 11 -6 20 -8 20 -6 0 3 -9 10 -20 16
-11 6 -20 8 -20 6z"/>
<path d="M8578 4463 c-50 -65 -73 -104 -34 -58 34 39 88 115 83 115 -2 0 -24
-26 -49 -57z"/>
<path d="M9120 4506 c0 -8 7 -16 15 -20 13 -4 14 -2 5 14 -13 23 -20 26 -20 6z"/>
<path d="M9050 4494 c0 -31 -11 -36 -34 -17 -20 18 -20 18 -4 -8 18 -29 15
-41 -8 -32 -8 3 -14 0 -14 -7 0 -6 -7 -19 -16 -28 -15 -15 -16 -14 -10 6 7 20
4 22 -27 20 -30 -3 -34 -6 -32 -28 3 -30 -3 -43 -17 -34 -6 4 -5 10 3 15 11 7
10 9 -3 9 -9 0 -18 -5 -20 -11 -3 -9 -9 -9 -26 0 -19 10 -21 9 -15 -6 6 -15 4
-16 -9 -5 -14 11 -21 9 -50 -16 -18 -16 -41 -32 -52 -35 -10 -4 -16 -13 -13
-22 4 -9 1 -12 -8 -8 -8 3 -12 9 -9 14 8 14 -6 10 -22 -6 -14 -13 -13 -15 5
-15 18 0 16 -5 -16 -35 -26 -25 -40 -32 -49 -24 -8 7 -14 6 -17 -3 -4 -8 -6
-7 -6 5 -1 19 -16 23 -27 5 -4 -6 -3 -8 3 -5 5 3 10 0 10 -8 0 -8 -4 -12 -9
-9 -5 3 -16 0 -25 -8 -10 -8 -14 -8 -10 -1 4 6 3 14 -2 18 -13 7 -51 -34 -51
-56 0 -22 -26 -43 -42 -33 -25 14 -2 -5 37 -32 22 -15 114 -74 205 -132 91
-57 188 -120 217 -139 l52 -34 43 47 c120 130 379 484 354 484 -3 0 -17 -20
-31 -44 -14 -24 -34 -50 -43 -58 -15 -12 -16 -11 -4 4 8 9 10 23 6 29 -5 8 -3
9 6 4 10 -6 12 -4 7 8 -4 10 -2 16 5 14 18 -3 40 45 25 56 -8 6 -6 7 6 3 9 -3
17 -1 17 4 0 6 -4 10 -10 10 -5 0 -10 5 -10 11 0 6 7 8 17 5 13 -5 11 1 -7 20
-20 22 -21 25 -5 16 46 -25 48 -28 36 -51 -7 -11 -10 -21 -7 -21 10 0 86 142
80 151 -3 5 -15 14 -27 20 -20 10 -20 9 2 -9 23 -18 23 -20 6 -45 -20 -31 -27
-35 -18 -10 5 13 2 15 -11 10 -14 -6 -17 -3 -12 8 4 10 -2 19 -16 24 -17 6
-28 2 -47 -16 -29 -26 -51 -32 -31 -8 7 9 10 19 6 23 -11 11 -56 9 -49 -2 4
-5 -5 -6 -21 -2 -15 4 -25 3 -23 -1 3 -4 -15 -6 -39 -4 -26 2 -41 7 -38 13 4
6 -1 8 -14 4 -14 -5 -24 -1 -31 11 -10 17 -10 16 -11 -3z m51 -62 c-30 -12
-36 -11 -50 3 -14 14 -13 15 15 9 19 -4 34 -2 38 5 4 6 13 8 19 4 7 -4 -2 -12
-22 -21z m-74 -28 c0 -7 -6 -15 -13 -18 -8 -3 -12 2 -11 13 1 20 24 25 24 5z
m63 -8 c0 -11 -19 -15 -25 -6 -3 5 1 10 9 10 9 0 16 -2 16 -4z m-265 -65 c-2
-2 -11 3 -19 12 -8 8 -12 17 -9 21 3 3 12 -2 19 -12 7 -9 11 -19 9 -21z m60
11 c-3 -3 -11 0 -18 7 -9 10 -8 11 6 5 10 -3 15 -9 12 -12z m65 -26 c0 -3 -4
-8 -10 -11 -5 -3 -10 -1 -10 4 0 6 5 11 10 11 6 0 10 -2 10 -4z m-80 -10 c0
-3 -4 -8 -10 -11 -5 -3 -10 -1 -10 4 0 6 5 11 10 11 6 0 10 -2 10 -4z m43 -41
c-3 -9 -8 -14 -10 -11 -3 3 -2 9 2 15 9 16 15 13 8 -4z m-223 -39 c0 -2 -7 -7
-16 -10 -8 -3 -12 -2 -9 4 6 10 25 14 25 6z"/>
<path d="M8930 4456 c0 -9 30 -14 35 -6 4 6 -3 10 -14 10 -12 0 -21 -2 -21 -4z"/>
<path d="M8832 4431 c-30 -26 -27 -34 6 -18 15 8 33 12 40 10 7 -3 10 1 6 11
-8 21 -26 20 -52 -3z"/>
<path d="M8851 4401 c-8 -5 -9 -11 -3 -15 5 -3 12 1 16 9 6 17 6 18 -13 6z"/>
<path d="M8454 4308 l-19 -23 23 19 c12 11 22 21 22 23 0 8 -8 2 -26 -19z"/>
<path d="M8414 4258 l-19 -23 23 19 c12 11 22 21 22 23 0 8 -8 2 -26 -19z"/>
<path d="M8610 4234 c0 -8 5 -12 10 -9 6 3 10 10 10 16 0 5 -4 9 -10 9 -5 0
-10 -7 -10 -16z"/>
<path d="M7929 3973 c-13 -16 -12 -17 4 -4 9 7 17 15 17 17 0 8 -8 3 -21 -13z"/>
<path d="M8169 3933 l-24 -28 28 24 c25 23 32 31 24 31 -2 0 -14 -12 -28 -27z"/>
<path d="M8228 3939 c18 -19 15 -29 -9 -29 -12 0 -34 -13 -49 -30 -15 -16 -32
-30 -38 -30 -5 0 -15 -6 -21 -14 -6 -7 -25 -16 -41 -20 -21 -4 -28 -10 -24
-20 4 -10 0 -13 -13 -10 -12 3 -34 -11 -66 -40 -26 -25 -59 -49 -72 -52 -14
-3 -23 -10 -20 -14 3 -5 -34 -33 -82 -63 -103 -63 -173 -100 -173 -91 0 4 -8
-3 -19 -14 -10 -12 -25 -22 -32 -22 -8 0 -29 -9 -46 -20 -18 -11 -33 -17 -33
-15 0 3 -15 -2 -32 -12 -18 -9 -35 -18 -38 -18 -12 -3 -48 -18 -84 -36 -22
-10 -43 -16 -47 -13 -5 3 -19 -1 -31 -8 -13 -7 -26 -13 -30 -14 -5 -1 -10 -3
-13 -4 -3 -1 -8 -3 -12 -4 -5 -1 -18 -7 -30 -14 -12 -7 -35 -13 -50 -15 -16
-2 -35 -7 -42 -11 -7 -4 -31 -9 -54 -11 -23 -1 -62 -6 -87 -9 -34 -5 -40 -4
-25 4 18 9 17 10 -5 5 -224 -42 -550 -73 -657 -61 l-52 6 -87 -171 c-61 -118
-90 -166 -96 -157 -6 9 -8 7 -4 -7 3 -12 -15 -59 -49 -125 -30 -57 -53 -105
-52 -106 1 -2 92 -8 202 -15 453 -28 931 41 1362 197 451 163 846 389 1180
677 l93 80 -58 37 c-213 137 -449 288 -462 295 -12 6 -13 5 -2 -6z"/>
<path d="M8119 3893 c-13 -16 -12 -17 4 -4 16 13 21 21 13 21 -2 0 -10 -8 -17
-17z"/>
<path d="M8069 3853 c-13 -16 -12 -17 4 -4 9 7 17 15 17 17 0 8 -8 3 -21 -13z"/>
<path d="M7983 3792 c-83 -63 -91 -74 -18 -25 51 34 98 75 84 72 -2 0 -32 -22
-66 -47z"/>
<path d="M7869 3709 c-23 -19 -23 -20 -2 -10 12 6 25 16 28 21 10 16 -1 12
-26 -11z"/>
<path d="M7764 3644 c-18 -14 -18 -15 4 -4 12 6 22 13 22 15 0 8 -5 6 -26 -11z"/>
<path d="M6988 3313 c7 -3 16 -2 19 1 4 3 -2 6 -13 5 -11 0 -14 -3 -6 -6z"/>
<path d="M6948 3303 c7 -3 16 -2 19 1 4 3 -2 6 -13 5 -11 0 -14 -3 -6 -6z"/>
<path d="M6948 11183 c7 -3 16 -2 19 1 4 3 -2 6 -13 5 -11 0 -14 -3 -6 -6z"/>
<path d="M5648 11173 c7 -3 16 -2 19 1 4 3 -2 6 -13 5 -11 0 -14 -3 -6 -6z"/>
<path d="M7013 11173 c9 -2 23 -2 30 0 6 3 -1 5 -18 5 -16 0 -22 -2 -12 -5z"/>
<path d="M7120 11155 c84 -18 109 -17 45 1 -27 7 -63 13 -80 13 -18 -1 -5 -6
35 -14z"/>
<path d="M10451 8665 c0 -5 6 -21 14 -35 8 -14 14 -20 14 -15 0 6 -6 21 -14
35 -8 14 -14 21 -14 15z"/>
<path d="M10530 8506 c0 -11 30 -66 36 -66 2 0 -3 15 -12 33 -19 36 -24 44
-24 33z"/>
<path d="M10577 8443 c-7 -39 28 -119 53 -119 10 0 16 4 14 8 -3 4 3 8 13 8
15 0 15 2 3 9 -8 6 -17 8 -20 6 -3 -2 -6 5 -6 15 0 11 2 17 5 15 6 -6 31 15
31 26 0 14 -22 11 -40 -6 -14 -13 -16 -12 -17 5 -1 12 3 17 12 14 17 -7 26 8
15 26 -7 12 -13 11 -31 -5 -12 -11 -20 -15 -16 -10 3 6 2 17 -2 24 -6 9 -10 4
-14 -16z"/>
<path d="M10981 4733 c-1 -6 -4 -20 -7 -30 -5 -17 -5 -17 6 0 6 10 9 23 6 30
-3 9 -5 9 -5 0z"/>
<path d="M1845 4000 c9 -16 18 -30 21 -30 2 0 -2 14 -11 30 -9 17 -18 30 -21
30 -2 0 2 -13 11 -30z"/>
</g>
</svg>
